<svg width="1600" height="900" viewBox="0 0 1600 900" fill="none" xmlns="http://www.w3.org/2000/svg">
<rect width="1600" height="900" fill="#C4C4C4"/>
<path d="M1575.78 896H1574.27V890.742H1568.54V896H1567.04V884.625H1568.54V889.516H1574.27V884.625H1575.78V896ZM1581.73 896.156C1580.58 896.156 1579.65 895.781 1578.93 895.031C1578.21 894.276 1577.85 893.268 1577.85 892.008V891.742C1577.85 890.904 1578.01 890.156 1578.33 889.5C1578.65 888.839 1579.1 888.323 1579.67 887.953C1580.25 887.578 1580.88 887.391 1581.55 887.391C1582.65 887.391 1583.5 887.753 1584.11 888.477C1584.72 889.201 1585.02 890.237 1585.02 891.586V892.188H1579.3C1579.32 893.021 1579.56 893.695 1580.02 894.211C1580.49 894.721 1581.09 894.977 1581.8 894.977C1582.32 894.977 1582.75 894.872 1583.1 894.664C1583.46 894.456 1583.77 894.18 1584.03 893.836L1584.91 894.523C1584.21 895.612 1583.14 896.156 1581.73 896.156ZM1581.55 888.578C1580.96 888.578 1580.47 888.792 1580.08 889.219C1579.68 889.641 1579.44 890.234 1579.34 891H1583.58V890.891C1583.54 890.156 1583.34 889.589 1582.98 889.188C1582.63 888.781 1582.15 888.578 1581.55 888.578ZM1590.79 888.844C1590.57 888.807 1590.33 888.789 1590.08 888.789C1589.13 888.789 1588.49 889.193 1588.15 890V896H1586.7V887.547H1588.11L1588.13 888.523C1588.61 887.768 1589.28 887.391 1590.15 887.391C1590.43 887.391 1590.64 887.427 1590.79 887.5V888.844ZM1591.59 891.695C1591.59 890.867 1591.75 890.122 1592.07 889.461C1592.4 888.799 1592.85 888.289 1593.43 887.93C1594.01 887.57 1594.68 887.391 1595.42 887.391C1596.57 887.391 1597.5 887.789 1598.21 888.586C1598.92 889.383 1599.28 890.443 1599.28 891.766V891.867C1599.28 892.69 1599.12 893.43 1598.8 894.086C1598.49 894.737 1598.04 895.245 1597.45 895.609C1596.87 895.974 1596.2 896.156 1595.44 896.156C1594.29 896.156 1593.36 895.758 1592.65 894.961C1591.94 894.164 1591.59 893.109 1591.59 891.797V891.695ZM1593.04 891.867C1593.04 892.805 1593.26 893.557 1593.69 894.125C1594.12 894.693 1594.71 894.977 1595.44 894.977C1596.17 894.977 1596.76 894.69 1597.19 894.117C1597.62 893.539 1597.84 892.732 1597.84 891.695C1597.84 890.768 1597.61 890.018 1597.17 889.445C1596.73 888.867 1596.15 888.578 1595.42 888.578C1594.71 888.578 1594.13 888.862 1593.7 889.43C1593.26 889.997 1593.04 890.81 1593.04 891.867Z" fill="white"/>
</svg>
